<svg xmlns="http://www.w3.org/2000/svg" viewBox="0 0 96 96">
  <defs>
    <linearGradient id="g" x1="0" x2="1" y1="0" y2="1">
      <stop offset="0" stop-color="#9CA3AF"/>
      <stop offset="1" stop-color="#111827"/>
    </linearGradient>
  </defs>
  <rect width="96" height="96" rx="16" fill="url(#g)"/>
  <path d="M17 62h62v9H17zM25 26h34c10 0 16 5 16 13 0 5-3 9-8 11 6 2 10 7 10 14H63c0-6-4-9-11-9H39v16H25V26Zm14 11v8h17c4 0 6-2 6-4 0-3-2-4-6-4H39Z" fill="#F9FAFB"/>
  <text x="48" y="86" text-anchor="middle" font-family="Arial, sans-serif" font-size="13" font-weight="900" fill="#D1D5DB">BATTLEFIELD 6</text>
</svg>
