<svg xmlns="http://www.w3.org/2000/svg" viewBox="0 0 240 240" width="240" height="240">
  <defs>
    <linearGradient id="g" x1="0" y1="0" x2="1" y2="1">
      <stop offset="0" stop-color="#53CDA4"/>
      <stop offset="0.46" stop-color="#107861"/>
      <stop offset="1" stop-color="#073A33"/>
    </linearGradient>
    <radialGradient id="r" cx="34%" cy="22%" r="72%">
      <stop offset="0" stop-color="#FFFFFF" stop-opacity="0.28"/>
      <stop offset="0.42" stop-color="#10B981" stop-opacity="0.18"/>
      <stop offset="1" stop-color="#000000" stop-opacity="0"/>
    </radialGradient>
    <filter id="shadow" x="-20%" y="-20%" width="140%" height="140%">
      <feDropShadow dx="0" dy="10" stdDeviation="8" flood-color="#000000" flood-opacity="0.42"/>
    </filter>
  </defs>
  <rect width="240" height="240" rx="24" fill="url(#g)"/>
  <rect width="240" height="240" rx="24" fill="url(#r)"/>
  <path d="M-24 188 C42 138 86 142 132 91 C167 51 198 43 264 20 L264 264 L-24 264 Z" fill="#000000" opacity="0.24"/>
  <path d="M19 35 L221 18 M18 72 L222 48 M23 111 L220 81" stroke="#FFFFFF" stroke-opacity="0.14" stroke-width="4"/>
  <rect x="28" y="28" width="184" height="116" rx="20" fill="#000000" opacity="0.24"/>
  <text x="120" y="112" text-anchor="middle" fill="#FFFFFF" font-family="Inter, Arial, sans-serif" font-size="56" font-weight="950" filter="url(#shadow)">NW</text>
  <text x="120" y="184" text-anchor="middle" fill="#FFFFFF" font-family="Inter, Arial, sans-serif" font-size="20" font-weight="900">New World</text>
  <text x="120" y="222" text-anchor="middle" fill="#FFFFFF" opacity="0.62" font-family="Inter, Arial, sans-serif" font-size="13" font-weight="800">Steam</text>
  <rect x="5" y="5" width="230" height="230" rx="21" fill="none" stroke="#FFFFFF" stroke-opacity="0.22" stroke-width="3"/>
</svg>
