<svg xmlns="http://www.w3.org/2000/svg" viewBox="0 0 512 512">
  <defs>
    <linearGradient id="bg" x1="82" x2="430" y1="54" y2="462" gradientUnits="userSpaceOnUse">
      <stop stop-color="#F8FCFF"/>
      <stop offset="0.5" stop-color="#EAF4FF"/>
      <stop offset="1" stop-color="#E7F2EA"/>
    </linearGradient>
    <linearGradient id="tower" x1="145" x2="360" y1="84" y2="428" gradientUnits="userSpaceOnUse">
      <stop stop-color="#FFFFFF"/>
      <stop offset="1" stop-color="#C7D4E2"/>
    </linearGradient>
  </defs>
  <rect width="512" height="512" rx="44" fill="url(#bg)"/>
  <rect x="0" y="365" width="512" height="147" fill="#DDEDE5"/>
  <ellipse cx="258" cy="414" rx="173" ry="28" fill="#506272" opacity="0.16"/>
  <rect x="142" y="86" width="228" height="326" rx="18" fill="url(#tower)"/>
  <path d="M181 86h151c21 0 38 17 38 38v288H142V124c0-21 18-38 39-38Z" fill="#EFF5FA" opacity="0.88"/>
  <g fill="#88B8E8">
    <rect x="172" y="129" width="43" height="45" rx="6"/>
    <rect x="235" y="129" width="43" height="45" rx="6"/>
    <rect x="298" y="129" width="43" height="45" rx="6"/>
    <rect x="172" y="202" width="43" height="45" rx="6"/>
    <rect x="235" y="202" width="43" height="45" rx="6"/>
    <rect x="298" y="202" width="43" height="45" rx="6"/>
    <rect x="172" y="275" width="43" height="45" rx="6"/>
    <rect x="235" y="275" width="43" height="45" rx="6"/>
    <rect x="298" y="275" width="43" height="45" rx="6"/>
  </g>
  <rect x="217" y="348" width="78" height="64" rx="9" fill="#657789"/>
  <path d="M106 411h300" stroke="#B2C1CD" stroke-linecap="round" stroke-width="10"/>
</svg>
