<svg xmlns="http://www.w3.org/2000/svg" viewBox="0 0 512 512">
  <defs>
    <linearGradient id="bg" x1="76" x2="430" y1="54" y2="468" gradientUnits="userSpaceOnUse">
      <stop stop-color="#F8FBFF"/>
      <stop offset="0.52" stop-color="#EAF0FF"/>
      <stop offset="1" stop-color="#DDE7FF"/>
    </linearGradient>
    <linearGradient id="console" x1="132" x2="388" y1="136" y2="354" gradientUnits="userSpaceOnUse">
      <stop stop-color="#1A1D25"/>
      <stop offset="1" stop-color="#05070D"/>
    </linearGradient>
    <linearGradient id="controller" x1="106" x2="414" y1="254" y2="386" gradientUnits="userSpaceOnUse">
      <stop stop-color="#303848"/>
      <stop offset="1" stop-color="#121722"/>
    </linearGradient>
  </defs>
  <rect width="512" height="512" rx="44" fill="url(#bg)"/>
  <ellipse cx="258" cy="420" rx="174" ry="31" fill="#9AA9CB" opacity="0.2"/>
  <rect x="158" y="104" width="198" height="210" rx="24" fill="url(#console)"/>
  <rect x="184" y="136" width="145" height="18" rx="9" fill="#7DA2FF" opacity="0.64"/>
  <rect x="183" y="174" width="146" height="104" rx="16" fill="#0B1020"/>
  <path d="M127 278c21-29 48-32 80-22l31 10h39l31-10c32-10 59-7 80 22 23 33 36 85 20 106-13 18-40 11-61-16l-26-31H194l-26 31c-21 27-48 34-61 16-16-21-3-73 20-106Z" fill="url(#controller)"/>
  <circle cx="348" cy="301" r="13" fill="#7CFFCB"/>
  <circle cx="378" cy="323" r="13" fill="#7DA2FF"/>
  <circle cx="322" cy="324" r="13" fill="#FFCB6B"/>
  <rect x="164" y="304" width="62" height="17" rx="8.5" fill="#F8FBFF" opacity="0.82"/>
  <rect x="187" y="281" width="17" height="62" rx="8.5" fill="#F8FBFF" opacity="0.82"/>
</svg>
