<svg xmlns="http://www.w3.org/2000/svg" viewBox="0 0 512 512">
  <defs>
    <linearGradient id="bg" x1="66" x2="440" y1="62" y2="454" gradientUnits="userSpaceOnUse">
      <stop stop-color="#FFF9F0"/>
      <stop offset="0.52" stop-color="#F5F1E8"/>
      <stop offset="1" stop-color="#E7EFE7"/>
    </linearGradient>
    <linearGradient id="folder" x1="122" x2="393" y1="232" y2="381" gradientUnits="userSpaceOnUse">
      <stop stop-color="#F4C66B"/>
      <stop offset="1" stop-color="#C98B20"/>
    </linearGradient>
  </defs>
  <rect width="512" height="512" rx="44" fill="url(#bg)"/>
  <ellipse cx="258" cy="406" rx="178" ry="30" fill="#8A6C3B" opacity="0.17"/>
  <path d="M116 221h121l28 34h131c17 0 31 14 31 31v86c0 17-14 31-31 31H116c-17 0-31-14-31-31V252c0-17 14-31 31-31Z" fill="url(#folder)"/>
  <rect x="110" y="184" width="245" height="144" rx="16" fill="#FFFFFF"/>
  <rect x="135" y="218" width="132" height="13" rx="6.5" fill="#D2D8E0"/>
  <rect x="135" y="251" width="182" height="12" rx="6" fill="#E0E5EC"/>
  <rect x="135" y="282" width="116" height="12" rx="6" fill="#E0E5EC"/>
  <path d="M230 339c0-40 32-72 72-72s72 32 72 72-32 72-72 72-72-32-72-72Z" fill="#F8FBFF"/>
  <circle cx="302" cy="339" r="45" fill="#F2B84D"/>
  <circle cx="302" cy="339" r="18" fill="#FFF8DE"/>
  <path d="M346 340h52v19h-21v19h-20v-19h-11v-19Z" fill="#F2B84D"/>
</svg>
