<svg xmlns="http://www.w3.org/2000/svg" viewBox="0 0 512 512">
  <defs>
    <linearGradient id="bg" x1="74" x2="438" y1="50" y2="456" gradientUnits="userSpaceOnUse">
      <stop stop-color="#F9FCFF"/>
      <stop offset="0.56" stop-color="#EEF5ED"/>
      <stop offset="1" stop-color="#DDEBDA"/>
    </linearGradient>
    <linearGradient id="roof" x1="112" x2="394" y1="142" y2="251" gradientUnits="userSpaceOnUse">
      <stop stop-color="#C78152"/>
      <stop offset="1" stop-color="#7C4430"/>
    </linearGradient>
  </defs>
  <rect width="512" height="512" rx="44" fill="url(#bg)"/>
  <rect x="0" y="350" width="512" height="162" fill="#D8EBD0"/>
  <ellipse cx="260" cy="407" rx="184" ry="29" fill="#5A714F" opacity="0.16"/>
  <path d="M125 246h267v156H125V246Z" fill="#F9FAF7"/>
  <path d="M94 252 258 126l164 126h-64L258 176 158 252H94Z" fill="url(#roof)"/>
  <rect x="160" y="282" width="64" height="59" rx="8" fill="#8FC3E8"/>
  <rect x="298" y="282" width="64" height="59" rx="8" fill="#8FC3E8"/>
  <rect x="237" y="313" width="50" height="89" rx="8" fill="#6E493A"/>
  <circle cx="277" cy="357" r="4" fill="#F4D483"/>
  <rect x="146" y="382" width="227" height="20" rx="10" fill="#D8D0C2"/>
  <path d="M73 407c31-19 59-19 86 0 32-18 67-18 104 0 37-17 72-17 105 0 26-16 50-16 73 0v47H73v-47Z" fill="#8BCB76"/>
</svg>
